<svg id="undraw_transfer_money_rywa" xmlns="http://www.w3.org/2000/svg" width="594.154" height="431.251" viewBox="0 0 594.154 431.251">
  <circle id="Ellipse_8" data-name="Ellipse 8" cx="201.5" cy="201.5" r="201.5" transform="translate(53)" fill="#f2f2f2"/>
  <ellipse id="Ellipse_9" data-name="Ellipse 9" cx="80.014" cy="12.802" rx="80.014" ry="12.802" transform="translate(0 405.647)" fill="#f2f2f2"/>
  <ellipse id="Ellipse_10" data-name="Ellipse 10" cx="123.805" cy="19.809" rx="123.805" ry="19.809" transform="translate(346.545 378.62)" fill="#f2f2f2"/>
  <path id="Path_6" data-name="Path 6" d="M860.963,435.945s1.054,3.513-4.919,6.676-7.73,15.108-.7,18.621,9.135,8.081,5.621,11.243-9.838,11.594-1.405,13.7,9.486,6.324,7.027,8.081,5.622-3.162,5.622-3.162,1.405,8.432,8.784,6.324,28.108-42.161,17.567-47.783S860.963,435.945,860.963,435.945Z" transform="translate(-418.121 -227.918)" fill="#2f2e41"/>
  <path id="Path_7" data-name="Path 7" d="M881.562,494.408s3.645,12.756-2.733,13.667A24.9,24.9,0,0,0,867.9,512.63L879.74,528.12h21.867l13.667-13.667s-18.222-13.667-14.578-21.867S881.562,494.408,881.562,494.408Z" transform="translate(-425.985 -252.455)" fill="#ffb9b9"/>
  <path id="Path_8" data-name="Path 8" d="M881.562,494.408s3.645,12.756-2.733,13.667A24.9,24.9,0,0,0,867.9,512.63L879.74,528.12h21.867l13.667-13.667s-18.222-13.667-14.578-21.867S881.562,494.408,881.562,494.408Z" transform="translate(-425.985 -252.455)" opacity="0.1"/>
  <path id="Path_9" data-name="Path 9" d="M852.787,729.352l20.956,7.289,14.578.911L887.41,724.8,857.342,715.9Z" transform="translate(-391.743 -328.863)" fill="#ffb9b9"/>
  <path id="Path_10" data-name="Path 10" d="M953,776.6s0,12.756,1.822,12.756,26.423-2.733,33.712,0,18.223-7.289,12.756-12.756-14.384-13.667-19.948-11.845S953,771.132,953,771.132Z" transform="translate(-465.081 -378.843)" fill="#575a89"/>
  <path id="Path_11" data-name="Path 11" d="M823.908,764.974s-10.934,21.867-3.644,23.689,15.489-.911,16.4-1.822,13.667-4.556,15.489-2.733,1.822-7.289,1.822-7.289Z" transform="translate(-402.954 -379.063)" fill="#575a89"/>
  <path id="Path_12" data-name="Path 12" d="M838.132,709.359s-17.311,23.689-4.556,30.067,73.8,6.378,78.357,0,6.378-26.423,0-28.245S838.132,709.359,838.132,709.359Z" transform="translate(-408.066 -353.516)" fill="#2f2e41"/>
  <path id="Path_13" data-name="Path 13" d="M838.132,709.359s-17.311,23.689-4.556,30.067,73.8,6.378,78.357,0,6.378-26.423,0-28.245S838.132,709.359,838.132,709.359Z" transform="translate(-408.066 -353.516)" opacity="0.2"/>
  <circle id="Ellipse_11" data-name="Ellipse 11" cx="20.956" cy="20.956" r="20.956" transform="translate(441.91 206.419)" fill="#ffb9b9"/>
  <path id="Path_14" data-name="Path 14" d="M845.987,529.306l18.223-3.644s4.556,14.578,19.134,11.845,18.223-11.845,18.223-11.845,10.933,4.556,11.845,4.556,12.756,4.556,12.756,7.289S912.5,567.574,912.5,567.574l1.822,49.2L846.9,614.952l4.556-48.29Z" transform="translate(-415.921 -269.131)" fill="#6c63ff"/>
  <path id="Path_15" data-name="Path 15" d="M824.835,576.22s-5.467,48.29-1.822,51.934,18.222,13.667,18.222,13.667V630.888l-7.289-13.667,7.289-31.889Z" transform="translate(-404.792 -292.356)" fill="#ffb9b9"/>
  <path id="Path_16" data-name="Path 16" d="M986.009,573.692s-3.189,49.656-3.189,51.479-8.2,8.2-10.934,8.2-4.556-4.556-4.556-4.556l6.378-7.289-4.556-37.356Z" transform="translate(-471.663 -291.194)" fill="#ffb9b9"/>
  <path id="Path_17" data-name="Path 17" d="M949.868,694.016s41-22.778,41.912,0-20.956,31.889-20.956,31.889-56.49,16.939-58.768,10.747-6.833-16.214-3.189-17.125,8.2-2.733,10.022-.911,24.6-13.667,24.6-13.667Z" transform="translate(-444.18 -341.817)" fill="#2f2e41"/>
  <path id="Path_18" data-name="Path 18" d="M999.583,697.562s-8.2,3.644-10.933,6.378-14.578,7.289-14.578,7.289" transform="translate(-474.759 -348.096)" fill="none" stroke="#000" stroke-miterlimit="10" stroke-width="2" opacity="0.2"/>
  <path id="Path_19" data-name="Path 19" d="M838.777,534.225,833.31,532.4s-20.045,20.956-13.667,26.423,10.022,7.289,11.845,9.111,10.934,2.733,10.934,2.733Z" transform="translate(-403.244 -272.227)" fill="#6c63ff"/>
  <path id="Path_20" data-name="Path 20" d="M968.287,544.2l8.2,1.822s6.378,13.667,8.2,15.489-2.733.911-5.467,4.556-5.467,10.022-10.933,10.022-12.756-9.111-12.756-9.111Z" transform="translate(-466.242 -277.647)" fill="#6c63ff"/>
  <path id="Path_21" data-name="Path 21" d="M808.617,706.654s-34.623-24.6-46.467-6.378,51.023,42.823,60.134,46.467,17.311,7.289,17.311,7.289,8.2-20.045,8.2-23.689-6.378-3.644-8.2-3.644-10.022-1.822-11.845-4.556S808.617,706.654,808.617,706.654Z" transform="translate(-376.729 -346.255)" fill="#2f2e41"/>
  <path id="Path_22" data-name="Path 22" d="M813.966,705.988s9.111,7.289,17.311,9.111,10.933,6.378,10.933,6.378" transform="translate(-401.212 -351.967)" fill="none" stroke="#000" stroke-miterlimit="10" stroke-width="2" opacity="0.2"/>
  <path id="Path_23" data-name="Path 23" d="M837.731,638.441l.728,38.577a4.829,4.829,0,0,0,4.883,4.738l71.791-.807A4.829,4.829,0,0,0,919.9,676.4l2.179-37.771a4.829,4.829,0,0,0-4.821-5.107h-74.7a4.829,4.829,0,0,0-4.828,4.92Z" transform="translate(-412.128 -318.678)" fill="#575a89"/>
  <path id="Path_24" data-name="Path 24" d="M899.138,423.04s1.168,3.892-5.449,7.4-8.563,16.736-.778,20.629,10.12,8.952,6.227,12.455-10.9,12.844-1.557,15.18,10.509,7.006,7.784,8.952,6.228-3.5,6.228-3.5,1.557,9.341,9.73,7.006,16.329-44.786,7.218-55.719C920.07,425.267,899.138,423.04,899.138,423.04Z" transform="translate(-435.152 -221.99)" fill="#2f2e41"/>
  <path id="Path_25" data-name="Path 25" d="M904.13,413.37c0-5.7,17.062-1.6,24.376,6.357,5.065,5.513,12.758,13.808,6.312,19.655s11.05,13.512,15.743,15.835,13.958,9.43,5.592,14.2-8.231,9.58-5.083,10.719-6.941-1.694-6.941-1.694,1.019,9.415-7.481,9.37-32.888-46.762-27.062-59.747C915,415.989,904.13,413.37,904.13,413.37Z" transform="translate(-442.63 -216.327)" fill="#2f2e41"/>
  <path id="Path_26" data-name="Path 26" d="M889.635,413.251c-22.813-1.374-25.1,15.8-25.1,15.8.158,9.938,15.939,5.1,20.323,6.577,5.288-3.8,15.481-11,22.771-16.139a34.478,34.478,0,0,0-17.991-6.237Z" transform="translate(-424.44 -217.457)" fill="#2f2e41"/>
  <path id="Path_27" data-name="Path 27" d="M772.72,475.4S752.256,379.493,624.169,309.92" transform="translate(-314.025 -170.026)" fill="none" stroke="#3f3d56" stroke-miterlimit="10" stroke-width="2"/>
  <path id="Path_28" data-name="Path 28" d="M578.07,254.891l.256,1.052-5.181,1.256,1.632,5.076-1.03.33-1.987-6.183Z" transform="translate(-262.648 -117.089)" fill="#3f3d56"/>
  <path id="Path_29" data-name="Path 29" d="M91.564,773.819c0,12.147-7.221,16.389-16.129,16.389q-.31,0-.618-.007c-.413-.009-.822-.029-1.225-.056-8.04-.569-14.286-5.029-14.286-16.326,0-11.691,14.94-26.444,16.062-27.535l0,0,.065-.063S91.564,761.672,91.564,773.819Z" transform="translate(-54.545 -370.448)" fill="#6c63ff"/>
  <path id="Path_30" data-name="Path 30" d="M82.544,788.35l5.9-8.243-5.914,9.148-.016.946c-.413-.009-.822-.028-1.225-.056l.636-12.153,0-.094.011-.018.06-1.148-5.929-9.171,5.947,8.31.014.244.481-9.182-5.076-9.476,5.138,7.865.5-19.037,0-.065v.063l-.084,15.012,5.053-5.951-5.074,7.244-.134,8.221,4.718-7.89-4.738,9.1-.075,4.571,6.849-10.982-6.875,12.577Z" transform="translate(-62.242 -370.448)" fill="#3f3d56"/>
  <path id="Path_31" data-name="Path 31" d="M234.66,789.272l3.45-2.563s2.284,12.757-.265,14.668-12.105,5.1-12.105,8.92-21.662,8.92-22.3,3.186,1.911-8.92,1.911-8.92,10.194-10.194,11.468-12.105,4.46-5.734,4.46-5.734Z" transform="translate(-120.709 -389.047)" fill="#2f2e41"/>
  <path id="Path_32" data-name="Path 32" d="M167,492.059s.1.561.261,1.586c.153.911.363,2.2.618,3.784,2.676,16.329,10.481,64.4,9.952,65.986-.637,1.911-5.1,8.92,0,10.831a3.952,3.952,0,0,1,1.586,1.727,37.031,37.031,0,0,1,2.695,6.358c3.039,8.818,6.288,22.93,8.168,32.7.822,4.294,1.382,7.747,1.548,9.557a5.2,5.2,0,0,1,.019,1.261c-.637,2.548,3.823,11.468,5.734,14.016s5.1,5.1,4.46,7.645,15.928,9.557,17.839,5.1,1.911-7.008,2.548-8.282,1.274-10.194-1.911-11.468-1.274-23.573-4.46-28.033c-1.064-1.484-2.689-6.511-4.39-12.557-.669-2.37-1.344-4.893-2.007-7.422-2.689-10.366-5.071-20.8-5.071-20.8l.637-74.542-35.041-4.46-.9,1.981-1.79,3.931Z" transform="translate(-104.015 -250.475)" fill="#2f2e41"/>
  <path id="Path_33" data-name="Path 33" d="M143.187,722.353s-5.1-5.1-7.645,0-5.1,24.847-9.557,29.307-10.194,26.759-3.823,28.033,13.379-1.911,14.016-5.734S150.2,750.386,150.2,748.475s-8.92-8.92-8.92-8.92Z" transform="translate(-82.117 -358.444)" fill="#2f2e41"/>
  <path id="Path_34" data-name="Path 34" d="M237.889,431.711s-8.282,74.542-10.194,81.551S215.59,547.029,212.4,551.489s-23.573,40.775-26.122,42.687-7.645,7.008-7.645,7.008-9.557,9.557-10.831,11.468-12.105-3.823-12.742-7.645.637-10.194,1.274-12.742-1.274-6.371.637-8.283,11.468-11.468,11.468-15.928,16.565-30.581,22.936-36.315,5.1-15.291,5.1-15.291V477.583l-35.041-10.831s1.911-30.581,6.371-30.581S230.881,425.977,237.889,431.711Z" transform="translate(-98.454 -225.169)" fill="#2f2e41"/>
  <circle id="Ellipse_12" data-name="Ellipse 12" cx="21.025" cy="21.025" r="21.025" transform="translate(66.804 58.095)" fill="#9f616a"/>
  <path id="Path_35" data-name="Path 35" d="M202.1,218.929s2.548,9.557,5.734,12.105-8.282,13.379-8.282,13.379l-21.662,1.274-3.823-12.105s7.008-14.016,5.1-22.936S202.1,218.929,202.1,218.929Z" transform="translate(-107.263 -123.244)" fill="#9f616a"/>
  <path id="Path_36" data-name="Path 36" d="M207.772,248.18s-5.734.637-7.008,2.548-10.194,7.645-17.2,6.371-11.468-3.186-12.742-2.548S167,268.568,167,268.568L174,288.955l-1.274,56.066-1.911,15.291s-3.823-5.1,11.468-1.911,35.041-2.548,41.412-3.186,17.2-2.548,17.839-6.371-1.911-17.839-1.911-17.839l-10.194-42.687-6.371-22.936Z" transform="translate(-104.015 -141.665)" fill="#6c63ff"/>
  <path id="Path_37" data-name="Path 37" d="M231.271,241.7s5.389-2.858,7.3-.31,26.122,6.371,26.122,8.283,5.1,53.518,3.823,57.977,2.548,9.557,2.548,9.557l4.46,19.113s12.105,36.315,7.008,37.59-9.557,0-11.468,0-1.274-24.21-6.371-30.581-12.105-22.3-13.379-25.485-17.2-47.146-16.565-52.243S231.271,241.7,231.271,241.7Z" transform="translate(-133.54 -138.059)" fill="#d0cde1"/>
  <path id="Path_38" data-name="Path 38" d="M159.58,248.18s-5.1,0-5.734,1.274-7.008,9.557-9.557,11.468-11.468,10.194-11.468,12.105S151.3,288.955,151.3,288.955s7.645,37.59,3.823,50.332-9.557,43.324-7.008,45.235,8.282,2.548,8.282,0,3.823-29.944,7.008-35.678,12.742-42.049,8.92-52.243S159.58,248.18,159.58,248.18Z" transform="translate(-88.316 -141.665)" fill="#d0cde1"/>
  <path id="Path_39" data-name="Path 39" d="M299.437,364.847s.637,19.75-6.371,29.944A121.078,121.078,0,0,0,281.6,416.453s-11.468-3.186-13.379-7.008-14.016-.637-14.016-1.911,14.654-7.645,15.928-8.92,5.734-1.274,8.282-3.823,3.186-8.282,3.186-8.282l2.548-16.565Z" transform="translate(-144.074 -195.258)" fill="#9f616a"/>
  <path id="Path_40" data-name="Path 40" d="M203.9,156.822a12.116,12.116,0,0,0,4.715-1.079,6.313,6.313,0,0,0,1.614-9.348,12.08,12.08,0,0,0-2.24-1.8l-4.843-3.3a23.689,23.689,0,0,0-6.833-3.627,21.329,21.329,0,0,0-6.985-.412,47.2,47.2,0,0,0-13.38,2.433,22.392,22.392,0,0,0-10.841,7.933c-4.1,5.933-4.157,13.935-1.9,20.784s6.548,12.814,10.775,18.657l2.193-10.7a3.95,3.95,0,0,1,1.241-2.562c1.97-1.4,4.381,1.477,6.8,1.458a4.072,4.072,0,0,0,3.447-2.728,15.546,15.546,0,0,0,.764-4.578c.289-3.279,1.434-7.84,4.539-9.648C195.86,156.619,200.647,157.117,203.9,156.822Z" transform="translate(-101.589 -90.666)" fill="#2f2e41"/>
  <path id="Path_41" data-name="Path 41" d="M234.168,498.8s-2.152,62.241-3.426,64.153,0-64.349,0-64.349Z" transform="translate(-133.037 -256.701)" opacity="0.1"/>
  <path id="Path_42" data-name="Path 42" d="M283.664,257.607h5.1s21.662,29.307,19.113,31.219,0,7.008,0,7.008l5.1,9.557s6.371,5.734,4.46,7.008-4.46,6.371-4.46,6.371-12.742-1.911-16.565,5.734l-8.263-10.432Z" transform="translate(-157.608 -145.995)" fill="#d0cde1"/>
  <rect id="Rectangle_34" data-name="Rectangle 34" width="18.922" height="35.262" transform="translate(110.367 128.261) rotate(-22.438)" fill="#2f2e41"/>
  <ellipse id="Ellipse_13" data-name="Ellipse 13" cx="3.784" cy="3.477" rx="3.784" ry="3.477" transform="translate(119.655 135.172) rotate(-22.438)" fill="#6c63ff"/>
  <path id="Path_43" data-name="Path 43" d="M212.858,328.609s-45.872,38.227-53.518,26.122,8.283-22.3,8.283-22.3,14.016.637,29.944-9.557l15.928-7.008s14.541-20.76,19.5-12.855S224.532,324.675,212.858,328.609Z" transform="translate(-99.544 -166.028)" fill="#9f616a"/>
  <path id="Path_44" data-name="Path 44" d="M137.664,289.426l-7.008,2.549v19.113l-2.548,3.823s.637,7.645,2.548,9.557,5.734,1.274,4.46,5.734a24.149,24.149,0,0,0-.637,8.92s11.468,14.654,12.105,12.742,9.557-25.485,10.831-25.485-12.742-36.953-12.742-36.953Z" transform="translate(-86.15 -160.612)" fill="#d0cde1"/>
  <path id="Path_45" data-name="Path 45" d="M289.243,458.546s6.588-6.371,3.294-6.69-14.762-6.69-16.673-3.5S289.243,458.546,289.243,458.546Z" transform="translate(-153.949 -233.209)" fill="#2f2e41"/>
  <ellipse id="Ellipse_14" data-name="Ellipse 14" cx="9.5" cy="5" rx="9.5" ry="5" transform="translate(251 94)" fill="#57b894"/>
  <path id="Path_46" data-name="Path 46" d="M544.673,238.671a85.244,85.244,0,0,0-62.173,0v-25.41a107.606,107.606,0,0,1,62.173,0Z" transform="translate(-248.947 -123.517)" fill="none" stroke="#3f3d56" stroke-miterlimit="10" stroke-width="2"/>
  <path id="Path_47" data-name="Path 47" d="M543.372,236.044a61.524,61.524,0,0,0-44.872,0V217.705a77.663,77.663,0,0,1,44.872,0Z" transform="translate(-256.297 -126.144)" fill="none" stroke="#3f3d56" stroke-miterlimit="10" stroke-width="2"/>
  <ellipse id="Ellipse_15" data-name="Ellipse 15" cx="9" cy="5" rx="9" ry="5" transform="translate(255 92)" fill="none" stroke="#3f3d56" stroke-miterlimit="10" stroke-width="2"/>
  <ellipse id="Ellipse_16" data-name="Ellipse 16" cx="9.191" cy="4.866" rx="9.191" ry="4.866" transform="matrix(0.98, -0.2, 0.2, 0.98, 256.39, 126.578)" fill="#57b894"/>
  <path id="Path_48" data-name="Path 48" d="M556.808,285.562A85.244,85.244,0,0,0,495.891,298l-5.081-24.9a107.606,107.606,0,0,1,60.917-12.433Z" transform="translate(-252.764 -147.192)" fill="none" stroke="#3f3d56" stroke-miterlimit="10" stroke-width="2"/>
  <path id="Path_49" data-name="Path 49" d="M554.792,285.232a61.524,61.524,0,0,0-43.966,8.973l-3.667-17.968a77.663,77.663,0,0,1,43.966-8.973Z" transform="translate(-260.275 -150.281)" fill="none" stroke="#3f3d56" stroke-miterlimit="10" stroke-width="2"/>
  <ellipse id="Ellipse_17" data-name="Ellipse 17" cx="9.191" cy="4.866" rx="9.191" ry="4.866" transform="matrix(0.98, -0.2, 0.2, 0.98, 259.136, 123.81)" fill="none" stroke="#3f3d56" stroke-miterlimit="10" stroke-width="2"/>
  <ellipse id="Ellipse_18" data-name="Ellipse 18" cx="4.866" cy="9.191" rx="4.866" ry="9.191" transform="translate(254.958 163.964) rotate(-86.019)" fill="#57b894"/>
  <path id="Path_50" data-name="Path 50" d="M549.735,353.6a85.245,85.245,0,0,0-62.023-4.316l1.764-25.348a107.606,107.606,0,0,1,62.023,4.316Z" transform="translate(-251.341 -175.235)" fill="none" stroke="#3f3d56" stroke-miterlimit="10" stroke-width="2"/>
  <path id="Path_51" data-name="Path 51" d="M549.113,350.443a61.524,61.524,0,0,0-44.764-3.115l1.273-18.295a77.663,77.663,0,0,1,44.764,3.115Z" transform="translate(-258.984 -177.918)" fill="none" stroke="#3f3d56" stroke-miterlimit="10" stroke-width="2"/>
  <ellipse id="Ellipse_19" data-name="Ellipse 19" cx="4.866" cy="9.191" rx="4.866" ry="9.191" transform="translate(258.344 162.032) rotate(-86.019)" fill="none" stroke="#3f3d56" stroke-miterlimit="10" stroke-width="2"/>
  <path id="Path_52" data-name="Path 52" d="M407.55,264.529s-39.734-5.436-68.11,11.193" transform="translate(-183.23 -148.785)" fill="none" stroke="#3f3d56" stroke-miterlimit="10" stroke-width="2"/>
  <path id="Path_53" data-name="Path 53" d="M289.04,224.459l1.032.327-1.613,5.081,5.187,1.238-.252,1.053-6.316-1.509Z" transform="translate(-131.874 -103.109)" fill="#3f3d56"/>
</svg>
